<svg class="rich-terminal" viewBox="0 0 1678 562.4" xmlns="http://www.w3.org/2000/svg">
    <!-- Generated with Rich https://www.textualize.io -->
    <style>

    @font-face {
        font-family: "Fira Code";
        src: local("FiraCode-Regular"),
                url("https://cdnjs.cloudflare.com/ajax/libs/firacode/6.2.0/woff2/FiraCode-Regular.woff2") format("woff2"),
                url("https://cdnjs.cloudflare.com/ajax/libs/firacode/6.2.0/woff/FiraCode-Regular.woff") format("woff");
        font-style: normal;
        font-weight: 400;
    }
    @font-face {
        font-family: "Fira Code";
        src: local("FiraCode-Bold"),
                url("https://cdnjs.cloudflare.com/ajax/libs/firacode/6.2.0/woff2/FiraCode-Bold.woff2") format("woff2"),
                url("https://cdnjs.cloudflare.com/ajax/libs/firacode/6.2.0/woff/FiraCode-Bold.woff") format("woff");
        font-style: bold;
        font-weight: 700;
    }

    .terminal-2015358838-matrix {
        font-family: Fira Code, monospace;
        font-size: 20px;
        line-height: 24.4px;
        font-variant-east-asian: full-width;
    }

    .terminal-2015358838-title {
        font-size: 18px;
        font-weight: bold;
        font-family: arial;
    }

    .terminal-2015358838-r1 { fill: #121212 }
.terminal-2015358838-r2 { fill: #c5c8c6 }
.terminal-2015358838-r3 { fill: #368ae9;font-style: italic; }
.terminal-2015358838-r4 { fill: #e0e0e0 }
.terminal-2015358838-r5 { fill: #929292;font-weight: bold }
.terminal-2015358838-r6 { fill: #000000 }
.terminal-2015358838-r7 { fill: #4ebf71;font-weight: bold }
.terminal-2015358838-r8 { fill: #242f38 }
.terminal-2015358838-r9 { fill: #191919 }
.terminal-2015358838-r10 { fill: #6db2ff }
.terminal-2015358838-r11 { fill: #7ae998 }
.terminal-2015358838-r12 { fill: #737373 }
.terminal-2015358838-r13 { fill: #ddedf9;font-weight: bold }
.terminal-2015358838-r14 { fill: #0a180e;font-weight: bold }
.terminal-2015358838-r15 { fill: #004295 }
.terminal-2015358838-r16 { fill: #008139 }
    </style>

    <defs>
    <clipPath id="terminal-2015358838-clip-terminal">
      <rect x="0" y="0" width="1658.1999999999998" height="511.4" />
    </clipPath>
    <clipPath id="terminal-2015358838-line-0">
    <rect x="0" y="1.5" width="1659.2" height="24.65"/>
            </clipPath>
<clipPath id="terminal-2015358838-line-1">
    <rect x="0" y="25.9" width="1659.2" height="24.65"/>
            </clipPath>
<clipPath id="terminal-2015358838-line-2">
    <rect x="0" y="50.3" width="1659.2" height="24.65"/>
            </clipPath>
<clipPath id="terminal-2015358838-line-3">
    <rect x="0" y="74.7" width="1659.2" height="24.65"/>
            </clipPath>
<clipPath id="terminal-2015358838-line-4">
    <rect x="0" y="99.1" width="1659.2" height="24.65"/>
            </clipPath>
<clipPath id="terminal-2015358838-line-5">
    <rect x="0" y="123.5" width="1659.2" height="24.65"/>
            </clipPath>
<clipPath id="terminal-2015358838-line-6">
    <rect x="0" y="147.9" width="1659.2" height="24.65"/>
            </clipPath>
<clipPath id="terminal-2015358838-line-7">
    <rect x="0" y="172.3" width="1659.2" height="24.65"/>
            </clipPath>
<clipPath id="terminal-2015358838-line-8">
    <rect x="0" y="196.7" width="1659.2" height="24.65"/>
            </clipPath>
<clipPath id="terminal-2015358838-line-9">
    <rect x="0" y="221.1" width="1659.2" height="24.65"/>
            </clipPath>
<clipPath id="terminal-2015358838-line-10">
    <rect x="0" y="245.5" width="1659.2" height="24.65"/>
            </clipPath>
<clipPath id="terminal-2015358838-line-11">
    <rect x="0" y="269.9" width="1659.2" height="24.65"/>
            </clipPath>
<clipPath id="terminal-2015358838-line-12">
    <rect x="0" y="294.3" width="1659.2" height="24.65"/>
            </clipPath>
<clipPath id="terminal-2015358838-line-13">
    <rect x="0" y="318.7" width="1659.2" height="24.65"/>
            </clipPath>
<clipPath id="terminal-2015358838-line-14">
    <rect x="0" y="343.1" width="1659.2" height="24.65"/>
            </clipPath>
<clipPath id="terminal-2015358838-line-15">
    <rect x="0" y="367.5" width="1659.2" height="24.65"/>
            </clipPath>
<clipPath id="terminal-2015358838-line-16">
    <rect x="0" y="391.9" width="1659.2" height="24.65"/>
            </clipPath>
<clipPath id="terminal-2015358838-line-17">
    <rect x="0" y="416.3" width="1659.2" height="24.65"/>
            </clipPath>
<clipPath id="terminal-2015358838-line-18">
    <rect x="0" y="440.7" width="1659.2" height="24.65"/>
            </clipPath>
<clipPath id="terminal-2015358838-line-19">
    <rect x="0" y="465.1" width="1659.2" height="24.65"/>
            </clipPath>
    </defs>

    <rect fill="#292929" stroke="rgba(255,255,255,0.35)" stroke-width="1" x="1" y="1" width="1676" height="560.4" rx="8"/><text class="terminal-2015358838-title" fill="#c5c8c6" text-anchor="middle" x="838" y="27">ogit</text>
            <g transform="translate(26,22)">
            <circle cx="0" cy="0" r="7" fill="#ff5f57"/>
            <circle cx="22" cy="0" r="7" fill="#febc2e"/>
            <circle cx="44" cy="0" r="7" fill="#28c840"/>
            </g>

    <g transform="translate(9, 41)" clip-path="url(#terminal-2015358838-clip-terminal)">
    <rect fill="#121212" x="0" y="1.5" width="1659.2" height="24.65" shape-rendering="crispEdges"/><rect fill="#121212" x="0" y="25.9" width="1598.2" height="24.65" shape-rendering="crispEdges"/><rect fill="#121212" x="1598.2" y="25.9" width="61" height="24.65" shape-rendering="crispEdges"/><rect fill="#242f38" x="0" y="50.3" width="122" height="24.65" shape-rendering="crispEdges"/><rect fill="#242f38" x="122" y="50.3" width="1512.8" height="24.65" shape-rendering="crispEdges"/><rect fill="#003054" x="1634.8" y="50.3" width="24.4" height="24.65" shape-rendering="crispEdges"/><rect fill="#242f38" x="0" y="74.7" width="12.2" height="24.65" shape-rendering="crispEdges"/><rect fill="#242f38" x="12.2" y="74.7" width="24.4" height="24.65" shape-rendering="crispEdges"/><rect fill="#242f38" x="36.6" y="74.7" width="73.2" height="24.65" shape-rendering="crispEdges"/><rect fill="#242f38" x="109.8" y="74.7" width="12.2" height="24.65" shape-rendering="crispEdges"/><rect fill="#242f38" x="122" y="74.7" width="12.2" height="24.65" shape-rendering="crispEdges"/><rect fill="#1e1e1e" x="134.2" y="74.7" width="24.4" height="24.65" shape-rendering="crispEdges"/><rect fill="#1e1e1e" x="158.6" y="74.7" width="341.6" height="24.65" shape-rendering="crispEdges"/><rect fill="#1e1e1e" x="500.2" y="74.7" width="1061.4" height="24.65" shape-rendering="crispEdges"/><rect fill="#1e1e1e" x="1561.6" y="74.7" width="24.4" height="24.65" shape-rendering="crispEdges"/><rect fill="#242f38" x="1586" y="74.7" width="48.8" height="24.65" shape-rendering="crispEdges"/><rect fill="#003054" x="1634.8" y="74.7" width="24.4" height="24.65" shape-rendering="crispEdges"/><rect fill="#242f38" x="0" y="99.1" width="122" height="24.65" shape-rendering="crispEdges"/><rect fill="#242f38" x="122" y="99.1" width="12.2" height="24.65" shape-rendering="crispEdges"/><rect fill="#1e1e1e" x="134.2" y="99.1" width="24.4" height="24.65" shape-rendering="crispEdges"/><rect fill="#1e1e1e" x="158.6" y="99.1" width="1403" height="24.65" shape-rendering="crispEdges"/><rect fill="#1e1e1e" x="1561.6" y="99.1" width="24.4" height="24.65" shape-rendering="crispEdges"/><rect fill="#242f38" x="1586" y="99.1" width="48.8" height="24.65" shape-rendering="crispEdges"/><rect fill="#003054" x="1634.8" y="99.1" width="24.4" height="24.65" shape-rendering="crispEdges"/><rect fill="#242f38" x="0" y="123.5" width="134.2" height="24.65" shape-rendering="crispEdges"/><rect fill="#1e1e1e" x="134.2" y="123.5" width="1451.8" height="24.65" shape-rendering="crispEdges"/><rect fill="#242f38" x="1586" y="123.5" width="48.8" height="24.65" shape-rendering="crispEdges"/><rect fill="#003054" x="1634.8" y="123.5" width="24.4" height="24.65" shape-rendering="crispEdges"/><rect fill="#242f38" x="0" y="147.9" width="1634.8" height="24.65" shape-rendering="crispEdges"/><rect fill="#003054" x="1634.8" y="147.9" width="24.4" height="24.65" shape-rendering="crispEdges"/><rect fill="#343f49" x="0" y="172.3" width="122" height="24.65" shape-rendering="crispEdges"/><rect fill="#343f49" x="122" y="172.3" width="1512.8" height="24.65" shape-rendering="crispEdges"/><rect fill="#003054" x="1634.8" y="172.3" width="24.4" height="24.65" shape-rendering="crispEdges"/><rect fill="#343f49" x="0" y="196.7" width="12.2" height="24.65" shape-rendering="crispEdges"/><rect fill="#343f49" x="12.2" y="196.7" width="73.2" height="24.65" shape-rendering="crispEdges"/><rect fill="#343f49" x="85.4" y="196.7" width="24.4" height="24.65" shape-rendering="crispEdges"/><rect fill="#343f49" x="109.8" y="196.7" width="12.2" height="24.65" shape-rendering="crispEdges"/><rect fill="#343f49" x="122" y="196.7" width="12.2" height="24.65" shape-rendering="crispEdges"/><rect fill="#1e1e1e" x="134.2" y="196.7" width="24.4" height="24.65" shape-rendering="crispEdges"/><rect fill="#1e1e1e" x="158.6" y="196.7" width="488" height="24.65" shape-rendering="crispEdges"/><rect fill="#1e1e1e" x="646.6" y="196.7" width="73.2" height="24.65" shape-rendering="crispEdges"/><rect fill="#1e1e1e" x="719.8" y="196.7" width="183" height="24.65" shape-rendering="crispEdges"/><rect fill="#1e1e1e" x="902.8" y="196.7" width="658.8" height="24.65" shape-rendering="crispEdges"/><rect fill="#1e1e1e" x="1561.6" y="196.7" width="24.4" height="24.65" shape-rendering="crispEdges"/><rect fill="#343f49" x="1586" y="196.7" width="48.8" height="24.65" shape-rendering="crispEdges"/><rect fill="#003054" x="1634.8" y="196.7" width="24.4" height="24.65" shape-rendering="crispEdges"/><rect fill="#343f49" x="0" y="221.1" width="122" height="24.65" shape-rendering="crispEdges"/><rect fill="#343f49" x="122" y="221.1" width="12.2" height="24.65" shape-rendering="crispEdges"/><rect fill="#1e1e1e" x="134.2" y="221.1" width="24.4" height="24.65" shape-rendering="crispEdges"/><rect fill="#1e1e1e" x="158.6" y="221.1" width="1403" height="24.65" shape-rendering="crispEdges"/><rect fill="#1e1e1e" x="1561.6" y="221.1" width="24.4" height="24.65" shape-rendering="crispEdges"/><rect fill="#343f49" x="1586" y="221.1" width="48.8" height="24.65" shape-rendering="crispEdges"/><rect fill="#000000" x="1634.8" y="221.1" width="24.4" height="24.65" shape-rendering="crispEdges"/><rect fill="#343f49" x="0" y="245.5" width="134.2" height="24.65" shape-rendering="crispEdges"/><rect fill="#1e1e1e" x="134.2" y="245.5" width="24.4" height="24.65" shape-rendering="crispEdges"/><rect fill="#1e1e1e" x="158.6" y="245.5" width="24.4" height="24.65" shape-rendering="crispEdges"/><rect fill="#1e1e1e" x="183" y="245.5" width="219.6" height="24.65" shape-rendering="crispEdges"/><rect fill="#1e1e1e" x="402.6" y="245.5" width="268.4" height="24.65" shape-rendering="crispEdges"/><rect fill="#1e1e1e" x="671" y="245.5" width="329.4" height="24.65" shape-rendering="crispEdges"/><rect fill="#1e1e1e" x="1000.4" y="245.5" width="353.8" height="24.65" shape-rendering="crispEdges"/><rect fill="#1e1e1e" x="1354.2" y="245.5" width="12.2" height="24.65" shape-rendering="crispEdges"/><rect fill="#1e1e1e" x="1366.4" y="245.5" width="195.2" height="24.65" shape-rendering="crispEdges"/><rect fill="#1e1e1e" x="1561.6" y="245.5" width="24.4" height="24.65" shape-rendering="crispEdges"/><rect fill="#343f49" x="1586" y="245.5" width="48.8" height="24.65" shape-rendering="crispEdges"/><rect fill="#000000" x="1634.8" y="245.5" width="24.4" height="24.65" shape-rendering="crispEdges"/><rect fill="#343f49" x="0" y="269.9" width="134.2" height="24.65" shape-rendering="crispEdges"/><rect fill="#1e1e1e" x="134.2" y="269.9" width="24.4" height="24.65" shape-rendering="crispEdges"/><rect fill="#1e1e1e" x="158.6" y="269.9" width="24.4" height="24.65" shape-rendering="crispEdges"/><rect fill="#1e1e1e" x="183" y="269.9" width="878.4" height="24.65" shape-rendering="crispEdges"/><rect fill="#1e1e1e" x="1061.4" y="269.9" width="500.2" height="24.65" shape-rendering="crispEdges"/><rect fill="#1e1e1e" x="1561.6" y="269.9" width="24.4" height="24.65" shape-rendering="crispEdges"/><rect fill="#343f49" x="1586" y="269.9" width="48.8" height="24.65" shape-rendering="crispEdges"/><rect fill="#000000" x="1634.8" y="269.9" width="24.4" height="24.65" shape-rendering="crispEdges"/><rect fill="#343f49" x="0" y="294.3" width="134.2" height="24.65" shape-rendering="crispEdges"/><rect fill="#1e1e1e" x="134.2" y="294.3" width="24.4" height="24.65" shape-rendering="crispEdges"/><rect fill="#1e1e1e" x="158.6" y="294.3" width="24.4" height="24.65" shape-rendering="crispEdges"/><rect fill="#1e1e1e" x="183" y="294.3" width="24.4" height="24.65" shape-rendering="crispEdges"/><rect fill="#1e1e1e" x="207.4" y="294.3" width="122" height="24.65" shape-rendering="crispEdges"/><rect fill="#1e1e1e" x="329.4" y="294.3" width="1232.2" height="24.65" shape-rendering="crispEdges"/><rect fill="#1e1e1e" x="1561.6" y="294.3" width="24.4" height="24.65" shape-rendering="crispEdges"/><rect fill="#343f49" x="1586" y="294.3" width="48.8" height="24.65" shape-rendering="crispEdges"/><rect fill="#000000" x="1634.8" y="294.3" width="24.4" height="24.65" shape-rendering="crispEdges"/><rect fill="#343f49" x="0" y="318.7" width="134.2" height="24.65" shape-rendering="crispEdges"/><rect fill="#1e1e1e" x="134.2" y="318.7" width="24.4" height="24.65" shape-rendering="crispEdges"/><rect fill="#1e1e1e" x="158.6" y="318.7" width="24.4" height="24.65" shape-rendering="crispEdges"/><rect fill="#1e1e1e" x="183" y="318.7" width="24.4" height="24.65" shape-rendering="crispEdges"/><rect fill="#1e1e1e" x="207.4" y="318.7" width="329.4" height="24.65" shape-rendering="crispEdges"/><rect fill="#1e1e1e" x="536.8" y="318.7" width="1024.8" height="24.65" shape-rendering="crispEdges"/><rect fill="#1e1e1e" x="1561.6" y="318.7" width="24.4" height="24.65" shape-rendering="crispEdges"/><rect fill="#343f49" x="1586" y="318.7" width="48.8" height="24.65" shape-rendering="crispEdges"/><rect fill="#000000" x="1634.8" y="318.7" width="24.4" height="24.65" shape-rendering="crispEdges"/><rect fill="#343f49" x="0" y="343.1" width="134.2" height="24.65" shape-rendering="crispEdges"/><rect fill="#1e1e1e" x="134.2" y="343.1" width="24.4" height="24.65" shape-rendering="crispEdges"/><rect fill="#1e1e1e" x="158.6" y="343.1" width="24.4" height="24.65" shape-rendering="crispEdges"/><rect fill="#1e1e1e" x="183" y="343.1" width="378.2" height="24.65" shape-rendering="crispEdges"/><rect fill="#1e1e1e" x="561.2" y="343.1" width="1000.4" height="24.65" shape-rendering="crispEdges"/><rect fill="#1e1e1e" x="1561.6" y="343.1" width="24.4" height="24.65" shape-rendering="crispEdges"/><rect fill="#343f49" x="1586" y="343.1" width="48.8" height="24.65" shape-rendering="crispEdges"/><rect fill="#000000" x="1634.8" y="343.1" width="24.4" height="24.65" shape-rendering="crispEdges"/><rect fill="#242f38" x="0" y="367.5" width="1659.2" height="24.65" shape-rendering="crispEdges"/><rect fill="#242f38" x="0" y="391.9" width="12.2" height="24.65" shape-rendering="crispEdges"/><rect fill="#191919" x="12.2" y="391.9" width="12.2" height="24.65" shape-rendering="crispEdges"/><rect fill="#1e1e1e" x="24.4" y="391.9" width="1317.6" height="24.65" shape-rendering="crispEdges"/><rect fill="#242f38" x="1342" y="391.9" width="12.2" height="24.65" shape-rendering="crispEdges"/><rect fill="#242f38" x="1354.2" y="391.9" width="12.2" height="24.65" shape-rendering="crispEdges"/><rect fill="#0178d4" x="1366.4" y="391.9" width="195.2" height="24.65" shape-rendering="crispEdges"/><rect fill="#242f38" x="1561.6" y="391.9" width="12.2" height="24.65" shape-rendering="crispEdges"/><rect fill="#4ebf71" x="1573.8" y="391.9" width="61" height="24.65" shape-rendering="crispEdges"/><rect fill="#242f38" x="1634.8" y="391.9" width="12.2" height="24.65" shape-rendering="crispEdges"/><rect fill="#242f38" x="1647" y="391.9" width="12.2" height="24.65" shape-rendering="crispEdges"/><rect fill="#242f38" x="0" y="416.3" width="12.2" height="24.65" shape-rendering="crispEdges"/><rect fill="#191919" x="12.2" y="416.3" width="12.2" height="24.65" shape-rendering="crispEdges"/><rect fill="#1e1e1e" x="24.4" y="416.3" width="24.4" height="24.65" shape-rendering="crispEdges"/><rect fill="#1e1e1e" x="48.8" y="416.3" width="183" height="24.65" shape-rendering="crispEdges"/><rect fill="#1e1e1e" x="231.8" y="416.3" width="1085.8" height="24.65" shape-rendering="crispEdges"/><rect fill="#1e1e1e" x="1317.6" y="416.3" width="24.4" height="24.65" shape-rendering="crispEdges"/><rect fill="#242f38" x="1342" y="416.3" width="12.2" height="24.65" shape-rendering="crispEdges"/><rect fill="#242f38" x="1354.2" y="416.3" width="12.2" height="24.65" shape-rendering="crispEdges"/><rect fill="#0178d4" x="1366.4" y="416.3" width="61" height="24.65" shape-rendering="crispEdges"/><rect fill="#0178d4" x="1427.4" y="416.3" width="12.2" height="24.65" shape-rendering="crispEdges"/><rect fill="#0178d4" x="1439.6" y="416.3" width="48.8" height="24.65" shape-rendering="crispEdges"/><rect fill="#0178d4" x="1488.4" y="416.3" width="12.2" height="24.65" shape-rendering="crispEdges"/><rect fill="#0178d4" x="1500.6" y="416.3" width="61" height="24.65" shape-rendering="crispEdges"/><rect fill="#242f38" x="1561.6" y="416.3" width="12.2" height="24.65" shape-rendering="crispEdges"/><rect fill="#4ebf71" x="1573.8" y="416.3" width="12.2" height="24.65" shape-rendering="crispEdges"/><rect fill="#4ebf71" x="1586" y="416.3" width="12.2" height="24.65" shape-rendering="crispEdges"/><rect fill="#4ebf71" x="1598.2" y="416.3" width="12.2" height="24.65" shape-rendering="crispEdges"/><rect fill="#4ebf71" x="1610.4" y="416.3" width="12.2" height="24.65" shape-rendering="crispEdges"/><rect fill="#4ebf71" x="1622.6" y="416.3" width="12.2" height="24.65" shape-rendering="crispEdges"/><rect fill="#242f38" x="1634.8" y="416.3" width="12.2" height="24.65" shape-rendering="crispEdges"/><rect fill="#242f38" x="1647" y="416.3" width="12.2" height="24.65" shape-rendering="crispEdges"/><rect fill="#242f38" x="0" y="440.7" width="12.2" height="24.65" shape-rendering="crispEdges"/><rect fill="#191919" x="12.2" y="440.7" width="12.2" height="24.65" shape-rendering="crispEdges"/><rect fill="#1e1e1e" x="24.4" y="440.7" width="1317.6" height="24.65" shape-rendering="crispEdges"/><rect fill="#242f38" x="1342" y="440.7" width="12.2" height="24.65" shape-rendering="crispEdges"/><rect fill="#242f38" x="1354.2" y="440.7" width="12.2" height="24.65" shape-rendering="crispEdges"/><rect fill="#0178d4" x="1366.4" y="440.7" width="195.2" height="24.65" shape-rendering="crispEdges"/><rect fill="#242f38" x="1561.6" y="440.7" width="12.2" height="24.65" shape-rendering="crispEdges"/><rect fill="#4ebf71" x="1573.8" y="440.7" width="61" height="24.65" shape-rendering="crispEdges"/><rect fill="#242f38" x="1634.8" y="440.7" width="12.2" height="24.65" shape-rendering="crispEdges"/><rect fill="#242f38" x="1647" y="440.7" width="12.2" height="24.65" shape-rendering="crispEdges"/><rect fill="#242f38" x="0" y="465.1" width="1659.2" height="24.65" shape-rendering="crispEdges"/><rect fill="#121212" x="0" y="489.5" width="1659.2" height="24.65" shape-rendering="crispEdges"/>
    <g class="terminal-2015358838-matrix">
    <text class="terminal-2015358838-r1" x="0" y="20" textLength="1659.2" clip-path="url(#terminal-2015358838-line-0)">▔▔▔▔▔▔▔▔▔▔▔▔▔▔▔▔▔▔▔▔▔▔▔▔▔▔▔▔▔▔▔▔▔▔▔▔▔▔▔▔▔▔▔▔▔▔▔▔▔▔▔▔▔▔▔▔▔▔▔▔▔▔▔▔▔▔▔▔▔▔▔▔▔▔▔▔▔▔▔▔▔▔▔▔▔▔▔▔▔▔▔▔▔▔▔▔▔▔▔▔▔▔▔▔▔▔▔▔▔▔▔▔▔▔▔▔▔▔▔▔▔▔▔▔▔▔▔▔▔▔▔▔▔▔▔▔</text><text class="terminal-2015358838-r2" x="1659.2" y="20" textLength="12.2" clip-path="url(#terminal-2015358838-line-0)">
</text><text class="terminal-2015358838-r3" x="0" y="44.4" textLength="1598.2" clip-path="url(#terminal-2015358838-line-1)">&#160;&#160;&#160;&#160;&#160;&#160;&#160;&#160;&#160;&#160;&#160;&#160;&#160;&#160;&#160;&#160;&#160;&#160;&#160;&#160;&#160;&#160;&#160;&#160;&#160;&#160;&#160;&#160;&#160;&#160;&#160;&#160;&#160;&#160;&#160;&#160;&#160;&#160;&#160;&#160;&#160;&#160;&#160;&#160;&#160;&#160;&#160;&#160;&#160;&#160;&#160;&#160;&#160;&#160;&#160;&#160;&#160;&#160;&#160;&#160;&#160;&#160;&#160;&#160;&#160;&#160;&#160;&#160;&#160;&#160;&#160;&#160;&#160;&#160;&#160;&#160;&#160;&#160;&#160;&#160;&#160;&#160;&#160;&#160;&#160;&#160;&#160;&#160;&#160;&#160;&#160;&#160;&#160;&#160;&#160;&#160;&#160;&#160;&#160;&#160;&#160;&#160;&#160;&#160;&#160;&#160;&#160;&#160;&#160;&#160;model:&#160;qwen2.5:latest</text><text class="terminal-2015358838-r2" x="1659.2" y="44.4" textLength="12.2" clip-path="url(#terminal-2015358838-line-1)">
</text><text class="terminal-2015358838-r2" x="1659.2" y="68.8" textLength="12.2" clip-path="url(#terminal-2015358838-line-2)">
</text><text class="terminal-2015358838-r4" x="12.2" y="93.2" textLength="24.4" clip-path="url(#terminal-2015358838-line-3)">me</text><text class="terminal-2015358838-r4" x="158.6" y="93.2" textLength="341.6" clip-path="url(#terminal-2015358838-line-3)">What&#160;is&#160;the&#160;status&#160;of&#160;/oterm</text><text class="terminal-2015358838-r2" x="1659.2" y="93.2" textLength="12.2" clip-path="url(#terminal-2015358838-line-3)">
</text><text class="terminal-2015358838-r2" x="1659.2" y="117.6" textLength="12.2" clip-path="url(#terminal-2015358838-line-4)">
</text><text class="terminal-2015358838-r2" x="1659.2" y="142" textLength="12.2" clip-path="url(#terminal-2015358838-line-5)">
</text><text class="terminal-2015358838-r2" x="1659.2" y="166.4" textLength="12.2" clip-path="url(#terminal-2015358838-line-6)">
</text><text class="terminal-2015358838-r2" x="1659.2" y="190.8" textLength="12.2" clip-path="url(#terminal-2015358838-line-7)">
</text><text class="terminal-2015358838-r4" x="12.2" y="215.2" textLength="73.2" clip-path="url(#terminal-2015358838-line-8)">ollama</text><text class="terminal-2015358838-r4" x="158.6" y="215.2" textLength="488" clip-path="url(#terminal-2015358838-line-8)">The&#160;current&#160;status&#160;of&#160;the&#160;repository&#160;at&#160;</text><text class="terminal-2015358838-r5" x="646.6" y="215.2" textLength="73.2" clip-path="url(#terminal-2015358838-line-8)">/oterm</text><text class="terminal-2015358838-r4" x="719.8" y="215.2" textLength="183" clip-path="url(#terminal-2015358838-line-8)">&#160;is&#160;as&#160;follows:</text><text class="terminal-2015358838-r6" x="1634.8" y="215.2" textLength="24.4" clip-path="url(#terminal-2015358838-line-8)">▁▁</text><text class="terminal-2015358838-r2" x="1659.2" y="215.2" textLength="12.2" clip-path="url(#terminal-2015358838-line-8)">
</text><text class="terminal-2015358838-r2" x="1659.2" y="239.6" textLength="12.2" clip-path="url(#terminal-2015358838-line-9)">
</text><text class="terminal-2015358838-r7" x="158.6" y="264" textLength="24.4" clip-path="url(#terminal-2015358838-line-10)">●&#160;</text><text class="terminal-2015358838-r4" x="183" y="264" textLength="219.6" clip-path="url(#terminal-2015358838-line-10)">You&#160;are&#160;on&#160;branch&#160;</text><text class="terminal-2015358838-r5" x="402.6" y="264" textLength="268.4" clip-path="url(#terminal-2015358838-line-10)">feature/app-generation</text><text class="terminal-2015358838-r4" x="671" y="264" textLength="329.4" clip-path="url(#terminal-2015358838-line-10)">,&#160;which&#160;is&#160;up-to-date&#160;with&#160;</text><text class="terminal-2015358838-r5" x="1000.4" y="264" textLength="353.8" clip-path="url(#terminal-2015358838-line-10)">origin/feature/app-generation</text><text class="terminal-2015358838-r4" x="1354.2" y="264" textLength="12.2" clip-path="url(#terminal-2015358838-line-10)">.</text><text class="terminal-2015358838-r2" x="1659.2" y="264" textLength="12.2" clip-path="url(#terminal-2015358838-line-10)">
</text><text class="terminal-2015358838-r7" x="158.6" y="288.4" textLength="24.4" clip-path="url(#terminal-2015358838-line-11)">●&#160;</text><text class="terminal-2015358838-r4" x="183" y="288.4" textLength="878.4" clip-path="url(#terminal-2015358838-line-11)">There&#160;are&#160;changes&#160;in&#160;the&#160;following&#160;files&#160;that&#160;are&#160;not&#160;staged&#160;for&#160;commit:</text><text class="terminal-2015358838-r2" x="1659.2" y="288.4" textLength="12.2" clip-path="url(#terminal-2015358838-line-11)">
</text><text class="terminal-2015358838-r7" x="183" y="312.8" textLength="24.4" clip-path="url(#terminal-2015358838-line-12)">▪&#160;</text><text class="terminal-2015358838-r5" x="207.4" y="312.8" textLength="122" clip-path="url(#terminal-2015358838-line-12)">mkdocs.yml</text><text class="terminal-2015358838-r2" x="1659.2" y="312.8" textLength="12.2" clip-path="url(#terminal-2015358838-line-12)">
</text><text class="terminal-2015358838-r7" x="183" y="337.2" textLength="24.4" clip-path="url(#terminal-2015358838-line-13)">▪&#160;</text><text class="terminal-2015358838-r5" x="207.4" y="337.2" textLength="329.4" clip-path="url(#terminal-2015358838-line-13)">src/oterm/command/create.py</text><text class="terminal-2015358838-r2" x="1659.2" y="337.2" textLength="12.2" clip-path="url(#terminal-2015358838-line-13)">
</text><text class="terminal-2015358838-r7" x="158.6" y="361.6" textLength="24.4" clip-path="url(#terminal-2015358838-line-14)">●&#160;</text><text class="terminal-2015358838-r4" x="183" y="361.6" textLength="378.2" clip-path="url(#terminal-2015358838-line-14)">There&#160;are&#160;also&#160;untracked&#160;files:</text><text class="terminal-2015358838-r2" x="1659.2" y="361.6" textLength="12.2" clip-path="url(#terminal-2015358838-line-14)">
</text><text class="terminal-2015358838-r2" x="1659.2" y="386" textLength="12.2" clip-path="url(#terminal-2015358838-line-15)">
</text><text class="terminal-2015358838-r8" x="12.2" y="410.4" textLength="12.2" clip-path="url(#terminal-2015358838-line-16)">▊</text><text class="terminal-2015358838-r9" x="24.4" y="410.4" textLength="1317.6" clip-path="url(#terminal-2015358838-line-16)">▔▔▔▔▔▔▔▔▔▔▔▔▔▔▔▔▔▔▔▔▔▔▔▔▔▔▔▔▔▔▔▔▔▔▔▔▔▔▔▔▔▔▔▔▔▔▔▔▔▔▔▔▔▔▔▔▔▔▔▔▔▔▔▔▔▔▔▔▔▔▔▔▔▔▔▔▔▔▔▔▔▔▔▔▔▔▔▔▔▔▔▔▔▔▔▔▔▔▔▔▔▔▔▔▔▔▔▔</text><text class="terminal-2015358838-r9" x="1342" y="410.4" textLength="12.2" clip-path="url(#terminal-2015358838-line-16)">▎</text><text class="terminal-2015358838-r10" x="1366.4" y="410.4" textLength="195.2" clip-path="url(#terminal-2015358838-line-16)">▔▔▔▔▔▔▔▔▔▔▔▔▔▔▔▔</text><text class="terminal-2015358838-r11" x="1573.8" y="410.4" textLength="61" clip-path="url(#terminal-2015358838-line-16)">▔▔▔▔▔</text><text class="terminal-2015358838-r2" x="1659.2" y="410.4" textLength="12.2" clip-path="url(#terminal-2015358838-line-16)">
</text><text class="terminal-2015358838-r8" x="12.2" y="434.8" textLength="12.2" clip-path="url(#terminal-2015358838-line-17)">▊</text><text class="terminal-2015358838-r12" x="48.8" y="434.8" textLength="183" clip-path="url(#terminal-2015358838-line-17)">Message&#160;Ollama…</text><text class="terminal-2015358838-r9" x="1342" y="434.8" textLength="12.2" clip-path="url(#terminal-2015358838-line-17)">▎</text><text class="terminal-2015358838-r13" x="1439.6" y="434.8" textLength="48.8" clip-path="url(#terminal-2015358838-line-17)">post</text><text class="terminal-2015358838-r14" x="1598.2" y="434.8" textLength="12.2" clip-path="url(#terminal-2015358838-line-17)">↕</text><text class="terminal-2015358838-r2" x="1659.2" y="434.8" textLength="12.2" clip-path="url(#terminal-2015358838-line-17)">
</text><text class="terminal-2015358838-r8" x="12.2" y="459.2" textLength="12.2" clip-path="url(#terminal-2015358838-line-18)">▊</text><text class="terminal-2015358838-r9" x="24.4" y="459.2" textLength="1317.6" clip-path="url(#terminal-2015358838-line-18)">▁▁▁▁▁▁▁▁▁▁▁▁▁▁▁▁▁▁▁▁▁▁▁▁▁▁▁▁▁▁▁▁▁▁▁▁▁▁▁▁▁▁▁▁▁▁▁▁▁▁▁▁▁▁▁▁▁▁▁▁▁▁▁▁▁▁▁▁▁▁▁▁▁▁▁▁▁▁▁▁▁▁▁▁▁▁▁▁▁▁▁▁▁▁▁▁▁▁▁▁▁▁▁▁▁▁▁▁</text><text class="terminal-2015358838-r9" x="1342" y="459.2" textLength="12.2" clip-path="url(#terminal-2015358838-line-18)">▎</text><text class="terminal-2015358838-r15" x="1366.4" y="459.2" textLength="195.2" clip-path="url(#terminal-2015358838-line-18)">▁▁▁▁▁▁▁▁▁▁▁▁▁▁▁▁</text><text class="terminal-2015358838-r16" x="1573.8" y="459.2" textLength="61" clip-path="url(#terminal-2015358838-line-18)">▁▁▁▁▁</text><text class="terminal-2015358838-r2" x="1659.2" y="459.2" textLength="12.2" clip-path="url(#terminal-2015358838-line-18)">
</text><text class="terminal-2015358838-r2" x="1659.2" y="483.6" textLength="12.2" clip-path="url(#terminal-2015358838-line-19)">
</text><text class="terminal-2015358838-r1" x="0" y="508" textLength="1659.2" clip-path="url(#terminal-2015358838-line-20)">▁▁▁▁▁▁▁▁▁▁▁▁▁▁▁▁▁▁▁▁▁▁▁▁▁▁▁▁▁▁▁▁▁▁▁▁▁▁▁▁▁▁▁▁▁▁▁▁▁▁▁▁▁▁▁▁▁▁▁▁▁▁▁▁▁▁▁▁▁▁▁▁▁▁▁▁▁▁▁▁▁▁▁▁▁▁▁▁▁▁▁▁▁▁▁▁▁▁▁▁▁▁▁▁▁▁▁▁▁▁▁▁▁▁▁▁▁▁▁▁▁▁▁▁▁▁▁▁▁▁▁▁▁▁▁▁</text>
    </g>
    </g>
</svg>
