<svg class="rich-terminal" viewBox="0 0 1678 977.1999999999999" xmlns="http://www.w3.org/2000/svg">
    <!-- Generated with Rich https://www.textualize.io -->
    <style>

    @font-face {
        font-family: "Fira Code";
        src: local("FiraCode-Regular"),
                url("https://cdnjs.cloudflare.com/ajax/libs/firacode/6.2.0/woff2/FiraCode-Regular.woff2") format("woff2"),
                url("https://cdnjs.cloudflare.com/ajax/libs/firacode/6.2.0/woff/FiraCode-Regular.woff") format("woff");
        font-style: normal;
        font-weight: 400;
    }
    @font-face {
        font-family: "Fira Code";
        src: local("FiraCode-Bold"),
                url("https://cdnjs.cloudflare.com/ajax/libs/firacode/6.2.0/woff2/FiraCode-Bold.woff2") format("woff2"),
                url("https://cdnjs.cloudflare.com/ajax/libs/firacode/6.2.0/woff/FiraCode-Bold.woff") format("woff");
        font-style: bold;
        font-weight: 700;
    }

    .terminal-127981694-matrix {
        font-family: Fira Code, monospace;
        font-size: 20px;
        line-height: 24.4px;
        font-variant-east-asian: full-width;
    }

    .terminal-127981694-title {
        font-size: 18px;
        font-weight: bold;
        font-family: arial;
    }

    .terminal-127981694-r1 { fill: #c5c8c6 }
.terminal-127981694-r2 { fill: #cdd6f4 }
.terminal-127981694-r3 { fill: #969cb6 }
.terminal-127981694-r4 { fill: #72778c }
.terminal-127981694-r5 { fill: #2a2b39 }
.terminal-127981694-r6 { fill: #f5c2e7 }
.terminal-127981694-r7 { fill: #ffd6fc;font-style: italic; }
.terminal-127981694-r8 { fill: #abe9b3;font-weight: bold }
.terminal-127981694-r9 { fill: #cdd6f4;font-weight: bold }
.terminal-127981694-r10 { fill: #45475a }
.terminal-127981694-r11 { fill: #b4befe }
.terminal-127981694-r12 { fill: #ffffff }
.terminal-127981694-r13 { fill: #d5ffdc }
.terminal-127981694-r14 { fill: #838490 }
.terminal-127981694-r15 { fill: #181825;font-weight: bold }
.terminal-127981694-r16 { fill: #b585a8 }
.terminal-127981694-r17 { fill: #6eaa77 }
.terminal-127981694-r18 { fill: #fab387;font-weight: bold }
.terminal-127981694-r19 { fill: #606378 }
    </style>

    <defs>
    <clipPath id="terminal-127981694-clip-terminal">
      <rect x="0" y="0" width="1658.1999999999998" height="926.1999999999999" />
    </clipPath>
    <clipPath id="terminal-127981694-line-0">
    <rect x="0" y="1.5" width="1659.2" height="24.65"/>
            </clipPath>
<clipPath id="terminal-127981694-line-1">
    <rect x="0" y="25.9" width="1659.2" height="24.65"/>
            </clipPath>
<clipPath id="terminal-127981694-line-2">
    <rect x="0" y="50.3" width="1659.2" height="24.65"/>
            </clipPath>
<clipPath id="terminal-127981694-line-3">
    <rect x="0" y="74.7" width="1659.2" height="24.65"/>
            </clipPath>
<clipPath id="terminal-127981694-line-4">
    <rect x="0" y="99.1" width="1659.2" height="24.65"/>
            </clipPath>
<clipPath id="terminal-127981694-line-5">
    <rect x="0" y="123.5" width="1659.2" height="24.65"/>
            </clipPath>
<clipPath id="terminal-127981694-line-6">
    <rect x="0" y="147.9" width="1659.2" height="24.65"/>
            </clipPath>
<clipPath id="terminal-127981694-line-7">
    <rect x="0" y="172.3" width="1659.2" height="24.65"/>
            </clipPath>
<clipPath id="terminal-127981694-line-8">
    <rect x="0" y="196.7" width="1659.2" height="24.65"/>
            </clipPath>
<clipPath id="terminal-127981694-line-9">
    <rect x="0" y="221.1" width="1659.2" height="24.65"/>
            </clipPath>
<clipPath id="terminal-127981694-line-10">
    <rect x="0" y="245.5" width="1659.2" height="24.65"/>
            </clipPath>
<clipPath id="terminal-127981694-line-11">
    <rect x="0" y="269.9" width="1659.2" height="24.65"/>
            </clipPath>
<clipPath id="terminal-127981694-line-12">
    <rect x="0" y="294.3" width="1659.2" height="24.65"/>
            </clipPath>
<clipPath id="terminal-127981694-line-13">
    <rect x="0" y="318.7" width="1659.2" height="24.65"/>
            </clipPath>
<clipPath id="terminal-127981694-line-14">
    <rect x="0" y="343.1" width="1659.2" height="24.65"/>
            </clipPath>
<clipPath id="terminal-127981694-line-15">
    <rect x="0" y="367.5" width="1659.2" height="24.65"/>
            </clipPath>
<clipPath id="terminal-127981694-line-16">
    <rect x="0" y="391.9" width="1659.2" height="24.65"/>
            </clipPath>
<clipPath id="terminal-127981694-line-17">
    <rect x="0" y="416.3" width="1659.2" height="24.65"/>
            </clipPath>
<clipPath id="terminal-127981694-line-18">
    <rect x="0" y="440.7" width="1659.2" height="24.65"/>
            </clipPath>
<clipPath id="terminal-127981694-line-19">
    <rect x="0" y="465.1" width="1659.2" height="24.65"/>
            </clipPath>
<clipPath id="terminal-127981694-line-20">
    <rect x="0" y="489.5" width="1659.2" height="24.65"/>
            </clipPath>
<clipPath id="terminal-127981694-line-21">
    <rect x="0" y="513.9" width="1659.2" height="24.65"/>
            </clipPath>
<clipPath id="terminal-127981694-line-22">
    <rect x="0" y="538.3" width="1659.2" height="24.65"/>
            </clipPath>
<clipPath id="terminal-127981694-line-23">
    <rect x="0" y="562.7" width="1659.2" height="24.65"/>
            </clipPath>
<clipPath id="terminal-127981694-line-24">
    <rect x="0" y="587.1" width="1659.2" height="24.65"/>
            </clipPath>
<clipPath id="terminal-127981694-line-25">
    <rect x="0" y="611.5" width="1659.2" height="24.65"/>
            </clipPath>
<clipPath id="terminal-127981694-line-26">
    <rect x="0" y="635.9" width="1659.2" height="24.65"/>
            </clipPath>
<clipPath id="terminal-127981694-line-27">
    <rect x="0" y="660.3" width="1659.2" height="24.65"/>
            </clipPath>
<clipPath id="terminal-127981694-line-28">
    <rect x="0" y="684.7" width="1659.2" height="24.65"/>
            </clipPath>
<clipPath id="terminal-127981694-line-29">
    <rect x="0" y="709.1" width="1659.2" height="24.65"/>
            </clipPath>
<clipPath id="terminal-127981694-line-30">
    <rect x="0" y="733.5" width="1659.2" height="24.65"/>
            </clipPath>
<clipPath id="terminal-127981694-line-31">
    <rect x="0" y="757.9" width="1659.2" height="24.65"/>
            </clipPath>
<clipPath id="terminal-127981694-line-32">
    <rect x="0" y="782.3" width="1659.2" height="24.65"/>
            </clipPath>
<clipPath id="terminal-127981694-line-33">
    <rect x="0" y="806.7" width="1659.2" height="24.65"/>
            </clipPath>
<clipPath id="terminal-127981694-line-34">
    <rect x="0" y="831.1" width="1659.2" height="24.65"/>
            </clipPath>
<clipPath id="terminal-127981694-line-35">
    <rect x="0" y="855.5" width="1659.2" height="24.65"/>
            </clipPath>
<clipPath id="terminal-127981694-line-36">
    <rect x="0" y="879.9" width="1659.2" height="24.65"/>
            </clipPath>
    </defs>

    <rect fill="#292929" stroke="rgba(255,255,255,0.35)" stroke-width="1" x="1" y="1" width="1676" height="975.2" rx="8"/><text class="terminal-127981694-title" fill="#c5c8c6" text-anchor="middle" x="838" y="27">oterm</text>
            <g transform="translate(26,22)">
            <circle cx="0" cy="0" r="7" fill="#ff5f57"/>
            <circle cx="22" cy="0" r="7" fill="#febc2e"/>
            <circle cx="44" cy="0" r="7" fill="#28c840"/>
            </g>

    <g transform="translate(9, 41)" clip-path="url(#terminal-127981694-clip-terminal)">
    <rect fill="#45475a" x="0" y="1.5" width="12.2" height="24.65" shape-rendering="crispEdges"/><rect fill="#45475a" x="12.2" y="1.5" width="12.2" height="24.65" shape-rendering="crispEdges"/><rect fill="#45475a" x="24.4" y="1.5" width="61" height="24.65" shape-rendering="crispEdges"/><rect fill="#45475a" x="85.4" y="1.5" width="12.2" height="24.65" shape-rendering="crispEdges"/><rect fill="#45475a" x="97.6" y="1.5" width="475.8" height="24.65" shape-rendering="crispEdges"/><rect fill="#45475a" x="573.4" y="1.5" width="97.6" height="24.65" shape-rendering="crispEdges"/><rect fill="#45475a" x="671" y="1.5" width="378.2" height="24.65" shape-rendering="crispEdges"/><rect fill="#45475a" x="1049.2" y="1.5" width="488" height="24.65" shape-rendering="crispEdges"/><rect fill="#45475a" x="1537.2" y="1.5" width="12.2" height="24.65" shape-rendering="crispEdges"/><rect fill="#45475a" x="1549.4" y="1.5" width="0" height="24.65" shape-rendering="crispEdges"/><rect fill="#45475a" x="1549.4" y="1.5" width="97.6" height="24.65" shape-rendering="crispEdges"/><rect fill="#45475a" x="1647" y="1.5" width="12.2" height="24.65" shape-rendering="crispEdges"/><rect fill="#181825" x="0" y="25.9" width="1659.2" height="24.65" shape-rendering="crispEdges"/><rect fill="#181825" x="0" y="50.3" width="12.2" height="24.65" shape-rendering="crispEdges"/><rect fill="#181825" x="12.2" y="50.3" width="244" height="24.65" shape-rendering="crispEdges"/><rect fill="#181825" x="256.2" y="50.3" width="12.2" height="24.65" shape-rendering="crispEdges"/><rect fill="#181825" x="268.4" y="50.3" width="12.2" height="24.65" shape-rendering="crispEdges"/><rect fill="#181825" x="280.6" y="50.3" width="305" height="24.65" shape-rendering="crispEdges"/><rect fill="#181825" x="585.6" y="50.3" width="12.2" height="24.65" shape-rendering="crispEdges"/><rect fill="#181825" x="597.8" y="50.3" width="12.2" height="24.65" shape-rendering="crispEdges"/><rect fill="#181825" x="610" y="50.3" width="305" height="24.65" shape-rendering="crispEdges"/><rect fill="#181825" x="915" y="50.3" width="12.2" height="24.65" shape-rendering="crispEdges"/><rect fill="#181825" x="927.2" y="50.3" width="732" height="24.65" shape-rendering="crispEdges"/><rect fill="#181825" x="0" y="74.7" width="597.8" height="24.65" shape-rendering="crispEdges"/><rect fill="#181825" x="597.8" y="74.7" width="12.2" height="24.65" shape-rendering="crispEdges"/><rect fill="#181825" x="610" y="74.7" width="305" height="24.65" shape-rendering="crispEdges"/><rect fill="#181825" x="915" y="74.7" width="12.2" height="24.65" shape-rendering="crispEdges"/><rect fill="#181825" x="927.2" y="74.7" width="732" height="24.65" shape-rendering="crispEdges"/><rect fill="#181825" x="0" y="99.1" width="1598.2" height="24.65" shape-rendering="crispEdges"/><rect fill="#181825" x="1598.2" y="99.1" width="61" height="24.65" shape-rendering="crispEdges"/><rect fill="#45475a" x="0" y="123.5" width="122" height="24.65" shape-rendering="crispEdges"/><rect fill="#45475a" x="122" y="123.5" width="1537.2" height="24.65" shape-rendering="crispEdges"/><rect fill="#45475a" x="0" y="147.9" width="12.2" height="24.65" shape-rendering="crispEdges"/><rect fill="#45475a" x="12.2" y="147.9" width="24.4" height="24.65" shape-rendering="crispEdges"/><rect fill="#45475a" x="36.6" y="147.9" width="73.2" height="24.65" shape-rendering="crispEdges"/><rect fill="#45475a" x="109.8" y="147.9" width="12.2" height="24.65" shape-rendering="crispEdges"/><rect fill="#45475a" x="122" y="147.9" width="12.2" height="24.65" shape-rendering="crispEdges"/><rect fill="#313244" x="134.2" y="147.9" width="24.4" height="24.65" shape-rendering="crispEdges"/><rect fill="#313244" x="158.6" y="147.9" width="244" height="24.65" shape-rendering="crispEdges"/><rect fill="#313244" x="402.6" y="147.9" width="1183.4" height="24.65" shape-rendering="crispEdges"/><rect fill="#313244" x="1586" y="147.9" width="24.4" height="24.65" shape-rendering="crispEdges"/><rect fill="#45475a" x="1610.4" y="147.9" width="48.8" height="24.65" shape-rendering="crispEdges"/><rect fill="#45475a" x="0" y="172.3" width="122" height="24.65" shape-rendering="crispEdges"/><rect fill="#45475a" x="122" y="172.3" width="12.2" height="24.65" shape-rendering="crispEdges"/><rect fill="#313244" x="134.2" y="172.3" width="24.4" height="24.65" shape-rendering="crispEdges"/><rect fill="#313244" x="158.6" y="172.3" width="1427.4" height="24.65" shape-rendering="crispEdges"/><rect fill="#313244" x="1586" y="172.3" width="24.4" height="24.65" shape-rendering="crispEdges"/><rect fill="#45475a" x="1610.4" y="172.3" width="48.8" height="24.65" shape-rendering="crispEdges"/><rect fill="#45475a" x="0" y="196.7" width="134.2" height="24.65" shape-rendering="crispEdges"/><rect fill="#313244" x="134.2" y="196.7" width="1476.2" height="24.65" shape-rendering="crispEdges"/><rect fill="#45475a" x="1610.4" y="196.7" width="48.8" height="24.65" shape-rendering="crispEdges"/><rect fill="#45475a" x="0" y="221.1" width="1659.2" height="24.65" shape-rendering="crispEdges"/><rect fill="#56586c" x="0" y="245.5" width="122" height="24.65" shape-rendering="crispEdges"/><rect fill="#56586c" x="122" y="245.5" width="1537.2" height="24.65" shape-rendering="crispEdges"/><rect fill="#56586c" x="0" y="269.9" width="12.2" height="24.65" shape-rendering="crispEdges"/><rect fill="#56586c" x="12.2" y="269.9" width="73.2" height="24.65" shape-rendering="crispEdges"/><rect fill="#56586c" x="85.4" y="269.9" width="24.4" height="24.65" shape-rendering="crispEdges"/><rect fill="#56586c" x="109.8" y="269.9" width="12.2" height="24.65" shape-rendering="crispEdges"/><rect fill="#56586c" x="122" y="269.9" width="12.2" height="24.65" shape-rendering="crispEdges"/><rect fill="#313244" x="134.2" y="269.9" width="24.4" height="24.65" shape-rendering="crispEdges"/><rect fill="#313244" x="158.6" y="269.9" width="1329.8" height="24.65" shape-rendering="crispEdges"/><rect fill="#313244" x="1488.4" y="269.9" width="97.6" height="24.65" shape-rendering="crispEdges"/><rect fill="#313244" x="1586" y="269.9" width="24.4" height="24.65" shape-rendering="crispEdges"/><rect fill="#56586c" x="1610.4" y="269.9" width="48.8" height="24.65" shape-rendering="crispEdges"/><rect fill="#56586c" x="0" y="294.3" width="122" height="24.65" shape-rendering="crispEdges"/><rect fill="#56586c" x="122" y="294.3" width="12.2" height="24.65" shape-rendering="crispEdges"/><rect fill="#313244" x="134.2" y="294.3" width="24.4" height="24.65" shape-rendering="crispEdges"/><rect fill="#313244" x="158.6" y="294.3" width="915" height="24.65" shape-rendering="crispEdges"/><rect fill="#313244" x="1073.6" y="294.3" width="512.4" height="24.65" shape-rendering="crispEdges"/><rect fill="#313244" x="1586" y="294.3" width="24.4" height="24.65" shape-rendering="crispEdges"/><rect fill="#56586c" x="1610.4" y="294.3" width="48.8" height="24.65" shape-rendering="crispEdges"/><rect fill="#56586c" x="0" y="318.7" width="134.2" height="24.65" shape-rendering="crispEdges"/><rect fill="#313244" x="134.2" y="318.7" width="24.4" height="24.65" shape-rendering="crispEdges"/><rect fill="#313244" x="158.6" y="318.7" width="1427.4" height="24.65" shape-rendering="crispEdges"/><rect fill="#313244" x="1586" y="318.7" width="24.4" height="24.65" shape-rendering="crispEdges"/><rect fill="#56586c" x="1610.4" y="318.7" width="48.8" height="24.65" shape-rendering="crispEdges"/><rect fill="#56586c" x="0" y="343.1" width="134.2" height="24.65" shape-rendering="crispEdges"/><rect fill="#313244" x="134.2" y="343.1" width="24.4" height="24.65" shape-rendering="crispEdges"/><rect fill="#313244" x="158.6" y="343.1" width="671" height="24.65" shape-rendering="crispEdges"/><rect fill="#313244" x="829.6" y="343.1" width="756.4" height="24.65" shape-rendering="crispEdges"/><rect fill="#313244" x="1586" y="343.1" width="24.4" height="24.65" shape-rendering="crispEdges"/><rect fill="#56586c" x="1610.4" y="343.1" width="48.8" height="24.65" shape-rendering="crispEdges"/><rect fill="#56586c" x="0" y="367.5" width="134.2" height="24.65" shape-rendering="crispEdges"/><rect fill="#313244" x="134.2" y="367.5" width="24.4" height="24.65" shape-rendering="crispEdges"/><rect fill="#313244" x="158.6" y="367.5" width="1427.4" height="24.65" shape-rendering="crispEdges"/><rect fill="#313244" x="1586" y="367.5" width="24.4" height="24.65" shape-rendering="crispEdges"/><rect fill="#56586c" x="1610.4" y="367.5" width="48.8" height="24.65" shape-rendering="crispEdges"/><rect fill="#56586c" x="0" y="391.9" width="134.2" height="24.65" shape-rendering="crispEdges"/><rect fill="#313244" x="134.2" y="391.9" width="24.4" height="24.65" shape-rendering="crispEdges"/><rect fill="#313244" x="158.6" y="391.9" width="24.4" height="24.65" shape-rendering="crispEdges"/><rect fill="#313244" x="183" y="391.9" width="268.4" height="24.65" shape-rendering="crispEdges"/><rect fill="#313244" x="451.4" y="391.9" width="1134.6" height="24.65" shape-rendering="crispEdges"/><rect fill="#313244" x="1586" y="391.9" width="24.4" height="24.65" shape-rendering="crispEdges"/><rect fill="#56586c" x="1610.4" y="391.9" width="48.8" height="24.65" shape-rendering="crispEdges"/><rect fill="#56586c" x="0" y="416.3" width="134.2" height="24.65" shape-rendering="crispEdges"/><rect fill="#313244" x="134.2" y="416.3" width="24.4" height="24.65" shape-rendering="crispEdges"/><rect fill="#313244" x="158.6" y="416.3" width="24.4" height="24.65" shape-rendering="crispEdges"/><rect fill="#313244" x="183" y="416.3" width="305" height="24.65" shape-rendering="crispEdges"/><rect fill="#313244" x="488" y="416.3" width="1098" height="24.65" shape-rendering="crispEdges"/><rect fill="#313244" x="1586" y="416.3" width="24.4" height="24.65" shape-rendering="crispEdges"/><rect fill="#56586c" x="1610.4" y="416.3" width="48.8" height="24.65" shape-rendering="crispEdges"/><rect fill="#56586c" x="0" y="440.7" width="134.2" height="24.65" shape-rendering="crispEdges"/><rect fill="#313244" x="134.2" y="440.7" width="24.4" height="24.65" shape-rendering="crispEdges"/><rect fill="#313244" x="158.6" y="440.7" width="24.4" height="24.65" shape-rendering="crispEdges"/><rect fill="#313244" x="183" y="440.7" width="195.2" height="24.65" shape-rendering="crispEdges"/><rect fill="#313244" x="378.2" y="440.7" width="48.8" height="24.65" shape-rendering="crispEdges"/><rect fill="#313244" x="427" y="440.7" width="36.6" height="24.65" shape-rendering="crispEdges"/><rect fill="#313244" x="463.6" y="440.7" width="1122.4" height="24.65" shape-rendering="crispEdges"/><rect fill="#313244" x="1586" y="440.7" width="24.4" height="24.65" shape-rendering="crispEdges"/><rect fill="#56586c" x="1610.4" y="440.7" width="48.8" height="24.65" shape-rendering="crispEdges"/><rect fill="#56586c" x="0" y="465.1" width="134.2" height="24.65" shape-rendering="crispEdges"/><rect fill="#313244" x="134.2" y="465.1" width="24.4" height="24.65" shape-rendering="crispEdges"/><rect fill="#313244" x="158.6" y="465.1" width="24.4" height="24.65" shape-rendering="crispEdges"/><rect fill="#313244" x="183" y="465.1" width="268.4" height="24.65" shape-rendering="crispEdges"/><rect fill="#313244" x="451.4" y="465.1" width="1134.6" height="24.65" shape-rendering="crispEdges"/><rect fill="#313244" x="1586" y="465.1" width="24.4" height="24.65" shape-rendering="crispEdges"/><rect fill="#56586c" x="1610.4" y="465.1" width="48.8" height="24.65" shape-rendering="crispEdges"/><rect fill="#56586c" x="0" y="489.5" width="134.2" height="24.65" shape-rendering="crispEdges"/><rect fill="#313244" x="134.2" y="489.5" width="24.4" height="24.65" shape-rendering="crispEdges"/><rect fill="#313244" x="158.6" y="489.5" width="1427.4" height="24.65" shape-rendering="crispEdges"/><rect fill="#313244" x="1586" y="489.5" width="24.4" height="24.65" shape-rendering="crispEdges"/><rect fill="#56586c" x="1610.4" y="489.5" width="48.8" height="24.65" shape-rendering="crispEdges"/><rect fill="#56586c" x="0" y="513.9" width="134.2" height="24.65" shape-rendering="crispEdges"/><rect fill="#313244" x="134.2" y="513.9" width="24.4" height="24.65" shape-rendering="crispEdges"/><rect fill="#313244" x="158.6" y="513.9" width="1427.4" height="24.65" shape-rendering="crispEdges"/><rect fill="#313244" x="1586" y="513.9" width="24.4" height="24.65" shape-rendering="crispEdges"/><rect fill="#56586c" x="1610.4" y="513.9" width="48.8" height="24.65" shape-rendering="crispEdges"/><rect fill="#56586c" x="0" y="538.3" width="134.2" height="24.65" shape-rendering="crispEdges"/><rect fill="#313244" x="134.2" y="538.3" width="24.4" height="24.65" shape-rendering="crispEdges"/><rect fill="#313244" x="158.6" y="538.3" width="1378.6" height="24.65" shape-rendering="crispEdges"/><rect fill="#313244" x="1537.2" y="538.3" width="48.8" height="24.65" shape-rendering="crispEdges"/><rect fill="#313244" x="1586" y="538.3" width="24.4" height="24.65" shape-rendering="crispEdges"/><rect fill="#56586c" x="1610.4" y="538.3" width="48.8" height="24.65" shape-rendering="crispEdges"/><rect fill="#56586c" x="0" y="562.7" width="134.2" height="24.65" shape-rendering="crispEdges"/><rect fill="#313244" x="134.2" y="562.7" width="24.4" height="24.65" shape-rendering="crispEdges"/><rect fill="#313244" x="158.6" y="562.7" width="451.4" height="24.65" shape-rendering="crispEdges"/><rect fill="#313244" x="610" y="562.7" width="976" height="24.65" shape-rendering="crispEdges"/><rect fill="#313244" x="1586" y="562.7" width="24.4" height="24.65" shape-rendering="crispEdges"/><rect fill="#56586c" x="1610.4" y="562.7" width="48.8" height="24.65" shape-rendering="crispEdges"/><rect fill="#56586c" x="0" y="587.1" width="134.2" height="24.65" shape-rendering="crispEdges"/><rect fill="#313244" x="134.2" y="587.1" width="24.4" height="24.65" shape-rendering="crispEdges"/><rect fill="#313244" x="158.6" y="587.1" width="1427.4" height="24.65" shape-rendering="crispEdges"/><rect fill="#313244" x="1586" y="587.1" width="24.4" height="24.65" shape-rendering="crispEdges"/><rect fill="#56586c" x="1610.4" y="587.1" width="48.8" height="24.65" shape-rendering="crispEdges"/><rect fill="#56586c" x="0" y="611.5" width="134.2" height="24.65" shape-rendering="crispEdges"/><rect fill="#313244" x="134.2" y="611.5" width="1476.2" height="24.65" shape-rendering="crispEdges"/><rect fill="#56586c" x="1610.4" y="611.5" width="48.8" height="24.65" shape-rendering="crispEdges"/><rect fill="#56586c" x="0" y="635.9" width="1659.2" height="24.65" shape-rendering="crispEdges"/><rect fill="#181825" x="0" y="660.3" width="1659.2" height="24.65" shape-rendering="crispEdges"/><rect fill="#181825" x="0" y="684.7" width="1659.2" height="24.65" shape-rendering="crispEdges"/><rect fill="#181825" x="0" y="709.1" width="1659.2" height="24.65" shape-rendering="crispEdges"/><rect fill="#181825" x="0" y="733.5" width="1659.2" height="24.65" shape-rendering="crispEdges"/><rect fill="#181825" x="0" y="757.9" width="1659.2" height="24.65" shape-rendering="crispEdges"/><rect fill="#181825" x="0" y="782.3" width="1659.2" height="24.65" shape-rendering="crispEdges"/><rect fill="#45475a" x="0" y="806.7" width="1659.2" height="24.65" shape-rendering="crispEdges"/><rect fill="#45475a" x="0" y="831.1" width="12.2" height="24.65" shape-rendering="crispEdges"/><rect fill="#b4befe" x="12.2" y="831.1" width="12.2" height="24.65" shape-rendering="crispEdges"/><rect fill="#383a4c" x="24.4" y="831.1" width="1317.6" height="24.65" shape-rendering="crispEdges"/><rect fill="#45475a" x="1342" y="831.1" width="12.2" height="24.65" shape-rendering="crispEdges"/><rect fill="#45475a" x="1354.2" y="831.1" width="12.2" height="24.65" shape-rendering="crispEdges"/><rect fill="#f5c2e7" x="1366.4" y="831.1" width="195.2" height="24.65" shape-rendering="crispEdges"/><rect fill="#45475a" x="1561.6" y="831.1" width="12.2" height="24.65" shape-rendering="crispEdges"/><rect fill="#abe9b3" x="1573.8" y="831.1" width="61" height="24.65" shape-rendering="crispEdges"/><rect fill="#45475a" x="1634.8" y="831.1" width="12.2" height="24.65" shape-rendering="crispEdges"/><rect fill="#45475a" x="1647" y="831.1" width="12.2" height="24.65" shape-rendering="crispEdges"/><rect fill="#45475a" x="0" y="855.5" width="12.2" height="24.65" shape-rendering="crispEdges"/><rect fill="#b4befe" x="12.2" y="855.5" width="12.2" height="24.65" shape-rendering="crispEdges"/><rect fill="#383a4c" x="24.4" y="855.5" width="24.4" height="24.65" shape-rendering="crispEdges"/><rect fill="#383a4c" x="48.8" y="855.5" width="183" height="24.65" shape-rendering="crispEdges"/><rect fill="#383a4c" x="231.8" y="855.5" width="1085.8" height="24.65" shape-rendering="crispEdges"/><rect fill="#383a4c" x="1317.6" y="855.5" width="24.4" height="24.65" shape-rendering="crispEdges"/><rect fill="#45475a" x="1342" y="855.5" width="12.2" height="24.65" shape-rendering="crispEdges"/><rect fill="#45475a" x="1354.2" y="855.5" width="12.2" height="24.65" shape-rendering="crispEdges"/><rect fill="#f5c2e7" x="1366.4" y="855.5" width="61" height="24.65" shape-rendering="crispEdges"/><rect fill="#f5c2e7" x="1427.4" y="855.5" width="12.2" height="24.65" shape-rendering="crispEdges"/><rect fill="#f5c2e7" x="1439.6" y="855.5" width="48.8" height="24.65" shape-rendering="crispEdges"/><rect fill="#f5c2e7" x="1488.4" y="855.5" width="12.2" height="24.65" shape-rendering="crispEdges"/><rect fill="#f5c2e7" x="1500.6" y="855.5" width="61" height="24.65" shape-rendering="crispEdges"/><rect fill="#45475a" x="1561.6" y="855.5" width="12.2" height="24.65" shape-rendering="crispEdges"/><rect fill="#abe9b3" x="1573.8" y="855.5" width="12.2" height="24.65" shape-rendering="crispEdges"/><rect fill="#abe9b3" x="1586" y="855.5" width="12.2" height="24.65" shape-rendering="crispEdges"/><rect fill="#abe9b3" x="1598.2" y="855.5" width="12.2" height="24.65" shape-rendering="crispEdges"/><rect fill="#abe9b3" x="1610.4" y="855.5" width="12.2" height="24.65" shape-rendering="crispEdges"/><rect fill="#abe9b3" x="1622.6" y="855.5" width="12.2" height="24.65" shape-rendering="crispEdges"/><rect fill="#45475a" x="1634.8" y="855.5" width="12.2" height="24.65" shape-rendering="crispEdges"/><rect fill="#45475a" x="1647" y="855.5" width="12.2" height="24.65" shape-rendering="crispEdges"/><rect fill="#45475a" x="0" y="879.9" width="12.2" height="24.65" shape-rendering="crispEdges"/><rect fill="#b4befe" x="12.2" y="879.9" width="12.2" height="24.65" shape-rendering="crispEdges"/><rect fill="#383a4c" x="24.4" y="879.9" width="1317.6" height="24.65" shape-rendering="crispEdges"/><rect fill="#45475a" x="1342" y="879.9" width="12.2" height="24.65" shape-rendering="crispEdges"/><rect fill="#45475a" x="1354.2" y="879.9" width="12.2" height="24.65" shape-rendering="crispEdges"/><rect fill="#f5c2e7" x="1366.4" y="879.9" width="195.2" height="24.65" shape-rendering="crispEdges"/><rect fill="#45475a" x="1561.6" y="879.9" width="12.2" height="24.65" shape-rendering="crispEdges"/><rect fill="#abe9b3" x="1573.8" y="879.9" width="61" height="24.65" shape-rendering="crispEdges"/><rect fill="#45475a" x="1634.8" y="879.9" width="12.2" height="24.65" shape-rendering="crispEdges"/><rect fill="#45475a" x="1647" y="879.9" width="12.2" height="24.65" shape-rendering="crispEdges"/><rect fill="#45475a" x="0" y="904.3" width="48.8" height="24.65" shape-rendering="crispEdges"/><rect fill="#45475a" x="48.8" y="904.3" width="122" height="24.65" shape-rendering="crispEdges"/><rect fill="#45475a" x="170.8" y="904.3" width="48.8" height="24.65" shape-rendering="crispEdges"/><rect fill="#45475a" x="219.6" y="904.3" width="122" height="24.65" shape-rendering="crispEdges"/><rect fill="#45475a" x="341.6" y="904.3" width="36.6" height="24.65" shape-rendering="crispEdges"/><rect fill="#45475a" x="378.2" y="904.3" width="97.6" height="24.65" shape-rendering="crispEdges"/><rect fill="#45475a" x="475.8" y="904.3" width="73.2" height="24.65" shape-rendering="crispEdges"/><rect fill="#45475a" x="549" y="904.3" width="122" height="24.65" shape-rendering="crispEdges"/><rect fill="#45475a" x="671" y="904.3" width="146.4" height="24.65" shape-rendering="crispEdges"/><rect fill="#45475a" x="817.4" y="904.3" width="122" height="24.65" shape-rendering="crispEdges"/><rect fill="#45475a" x="939.4" y="904.3" width="48.8" height="24.65" shape-rendering="crispEdges"/><rect fill="#45475a" x="988.2" y="904.3" width="146.4" height="24.65" shape-rendering="crispEdges"/><rect fill="#45475a" x="1134.6" y="904.3" width="48.8" height="24.65" shape-rendering="crispEdges"/><rect fill="#45475a" x="1183.4" y="904.3" width="109.8" height="24.65" shape-rendering="crispEdges"/><rect fill="#45475a" x="1293.2" y="904.3" width="48.8" height="24.65" shape-rendering="crispEdges"/><rect fill="#45475a" x="1342" y="904.3" width="61" height="24.65" shape-rendering="crispEdges"/><rect fill="#45475a" x="1403" y="904.3" width="109.8" height="24.65" shape-rendering="crispEdges"/><rect fill="#45475a" x="1512.8" y="904.3" width="12.2" height="24.65" shape-rendering="crispEdges"/><rect fill="#45475a" x="1525" y="904.3" width="24.4" height="24.65" shape-rendering="crispEdges"/><rect fill="#45475a" x="1549.4" y="904.3" width="97.6" height="24.65" shape-rendering="crispEdges"/><rect fill="#45475a" x="1647" y="904.3" width="12.2" height="24.65" shape-rendering="crispEdges"/>
    <g class="terminal-127981694-matrix">
    <text class="terminal-127981694-r2" x="12.2" y="20" textLength="12.2" clip-path="url(#terminal-127981694-line-0)">⭘</text><text class="terminal-127981694-r2" x="573.4" y="20" textLength="97.6" clip-path="url(#terminal-127981694-line-0)">oterm&#160;—&#160;</text><text class="terminal-127981694-r3" x="671" y="20" textLength="378.2" clip-path="url(#terminal-127981694-line-0)">A&#160;terminal-based&#160;Ollama&#160;client.</text><text class="terminal-127981694-r1" x="1659.2" y="20" textLength="12.2" clip-path="url(#terminal-127981694-line-0)">
</text><text class="terminal-127981694-r1" x="1659.2" y="44.4" textLength="12.2" clip-path="url(#terminal-127981694-line-1)">
</text><text class="terminal-127981694-r4" x="12.2" y="68.8" textLength="244" clip-path="url(#terminal-127981694-line-2)">qwen2.5-coder:latest</text><text class="terminal-127981694-r4" x="280.6" y="68.8" textLength="305" clip-path="url(#terminal-127981694-line-2)">chat&#160;#2&#160;-&#160;llama3.2:latest</text><text class="terminal-127981694-r2" x="610" y="68.8" textLength="305" clip-path="url(#terminal-127981694-line-2)">chat&#160;#3&#160;-&#160;llama3.2:latest</text><text class="terminal-127981694-r1" x="1659.2" y="68.8" textLength="12.2" clip-path="url(#terminal-127981694-line-2)">
</text><text class="terminal-127981694-r5" x="0" y="93.2" textLength="597.8" clip-path="url(#terminal-127981694-line-3)">━━━━━━━━━━━━━━━━━━━━━━━━━━━━━━━━━━━━━━━━━━━━━━━━━</text><text class="terminal-127981694-r5" x="597.8" y="93.2" textLength="12.2" clip-path="url(#terminal-127981694-line-3)">╸</text><text class="terminal-127981694-r6" x="610" y="93.2" textLength="305" clip-path="url(#terminal-127981694-line-3)">━━━━━━━━━━━━━━━━━━━━━━━━━</text><text class="terminal-127981694-r5" x="915" y="93.2" textLength="12.2" clip-path="url(#terminal-127981694-line-3)">╺</text><text class="terminal-127981694-r5" x="927.2" y="93.2" textLength="732" clip-path="url(#terminal-127981694-line-3)">━━━━━━━━━━━━━━━━━━━━━━━━━━━━━━━━━━━━━━━━━━━━━━━━━━━━━━━━━━━━</text><text class="terminal-127981694-r1" x="1659.2" y="93.2" textLength="12.2" clip-path="url(#terminal-127981694-line-3)">
</text><text class="terminal-127981694-r7" x="0" y="117.6" textLength="1598.2" clip-path="url(#terminal-127981694-line-4)">&#160;&#160;&#160;&#160;&#160;&#160;&#160;&#160;&#160;&#160;&#160;&#160;&#160;&#160;&#160;&#160;&#160;&#160;&#160;&#160;&#160;&#160;&#160;&#160;&#160;&#160;&#160;&#160;&#160;&#160;&#160;&#160;&#160;&#160;&#160;&#160;&#160;&#160;&#160;&#160;&#160;&#160;&#160;&#160;&#160;&#160;&#160;&#160;&#160;&#160;&#160;&#160;&#160;&#160;&#160;&#160;&#160;&#160;&#160;&#160;&#160;&#160;&#160;&#160;&#160;&#160;&#160;&#160;&#160;&#160;&#160;&#160;&#160;&#160;&#160;&#160;&#160;&#160;&#160;&#160;&#160;&#160;&#160;&#160;&#160;&#160;&#160;&#160;&#160;&#160;&#160;&#160;&#160;&#160;&#160;&#160;&#160;&#160;&#160;&#160;&#160;&#160;&#160;&#160;&#160;&#160;&#160;&#160;&#160;model:&#160;llama3.2:latest</text><text class="terminal-127981694-r1" x="1659.2" y="117.6" textLength="12.2" clip-path="url(#terminal-127981694-line-4)">
</text><text class="terminal-127981694-r1" x="1659.2" y="142" textLength="12.2" clip-path="url(#terminal-127981694-line-5)">
</text><text class="terminal-127981694-r2" x="12.2" y="166.4" textLength="24.4" clip-path="url(#terminal-127981694-line-6)">me</text><text class="terminal-127981694-r2" x="158.6" y="166.4" textLength="244" clip-path="url(#terminal-127981694-line-6)">Git&#160;status&#160;at&#160;/oterm</text><text class="terminal-127981694-r1" x="1659.2" y="166.4" textLength="12.2" clip-path="url(#terminal-127981694-line-6)">
</text><text class="terminal-127981694-r1" x="1659.2" y="190.8" textLength="12.2" clip-path="url(#terminal-127981694-line-7)">
</text><text class="terminal-127981694-r1" x="1659.2" y="215.2" textLength="12.2" clip-path="url(#terminal-127981694-line-8)">
</text><text class="terminal-127981694-r1" x="1659.2" y="239.6" textLength="12.2" clip-path="url(#terminal-127981694-line-9)">
</text><text class="terminal-127981694-r1" x="1659.2" y="264" textLength="12.2" clip-path="url(#terminal-127981694-line-10)">
</text><text class="terminal-127981694-r2" x="12.2" y="288.4" textLength="73.2" clip-path="url(#terminal-127981694-line-11)">ollama</text><text class="terminal-127981694-r2" x="158.6" y="288.4" textLength="1329.8" clip-path="url(#terminal-127981694-line-11)">The&#160;current&#160;status&#160;of&#160;the&#160;repository&#160;at&#160;/oterm&#160;shows&#160;that&#160;it&#160;is&#160;on&#160;branch&#160;feature/mcp-support.&#160;The&#160;branch&#160;is&#160;</text><text class="terminal-127981694-r1" x="1659.2" y="288.4" textLength="12.2" clip-path="url(#terminal-127981694-line-11)">
</text><text class="terminal-127981694-r2" x="158.6" y="312.8" textLength="915" clip-path="url(#terminal-127981694-line-12)">up-to-date&#160;with&#160;its&#160;corresponding&#160;remote&#160;branch&#160;origin/feature/mcp-support.</text><text class="terminal-127981694-r1" x="1659.2" y="312.8" textLength="12.2" clip-path="url(#terminal-127981694-line-12)">
</text><text class="terminal-127981694-r1" x="1659.2" y="337.2" textLength="12.2" clip-path="url(#terminal-127981694-line-13)">
</text><text class="terminal-127981694-r2" x="158.6" y="361.6" textLength="671" clip-path="url(#terminal-127981694-line-14)">There&#160;are&#160;four&#160;modified&#160;files&#160;in&#160;the&#160;working&#160;directory:</text><text class="terminal-127981694-r1" x="1659.2" y="361.6" textLength="12.2" clip-path="url(#terminal-127981694-line-14)">
</text><text class="terminal-127981694-r1" x="1659.2" y="386" textLength="12.2" clip-path="url(#terminal-127981694-line-15)">
</text><text class="terminal-127981694-r8" x="158.6" y="410.4" textLength="24.4" clip-path="url(#terminal-127981694-line-16)">●&#160;</text><text class="terminal-127981694-r2" x="183" y="410.4" textLength="268.4" clip-path="url(#terminal-127981694-line-16)">src/oterm/app/oterm.py</text><text class="terminal-127981694-r1" x="1659.2" y="410.4" textLength="12.2" clip-path="url(#terminal-127981694-line-16)">
</text><text class="terminal-127981694-r8" x="158.6" y="434.8" textLength="24.4" clip-path="url(#terminal-127981694-line-17)">●&#160;</text><text class="terminal-127981694-r2" x="183" y="434.8" textLength="305" clip-path="url(#terminal-127981694-line-17)">src/oterm/ollamaclient.py</text><text class="terminal-127981694-r1" x="1659.2" y="434.8" textLength="12.2" clip-path="url(#terminal-127981694-line-17)">
</text><text class="terminal-127981694-r8" x="158.6" y="459.2" textLength="24.4" clip-path="url(#terminal-127981694-line-18)">●&#160;</text><text class="terminal-127981694-r2" x="183" y="459.2" textLength="195.2" clip-path="url(#terminal-127981694-line-18)">src/oterm/tools/</text><text class="terminal-127981694-r9" x="378.2" y="459.2" textLength="48.8" clip-path="url(#terminal-127981694-line-18)">init</text><text class="terminal-127981694-r2" x="427" y="459.2" textLength="36.6" clip-path="url(#terminal-127981694-line-18)">.py</text><text class="terminal-127981694-r1" x="1659.2" y="459.2" textLength="12.2" clip-path="url(#terminal-127981694-line-18)">
</text><text class="terminal-127981694-r8" x="158.6" y="483.6" textLength="24.4" clip-path="url(#terminal-127981694-line-19)">●&#160;</text><text class="terminal-127981694-r2" x="183" y="483.6" textLength="268.4" clip-path="url(#terminal-127981694-line-19)">src/oterm/tools/mcp.py</text><text class="terminal-127981694-r1" x="1659.2" y="483.6" textLength="12.2" clip-path="url(#terminal-127981694-line-19)">
</text><text class="terminal-127981694-r1" x="1659.2" y="508" textLength="12.2" clip-path="url(#terminal-127981694-line-20)">
</text><text class="terminal-127981694-r2" x="158.6" y="532.4" textLength="1427.4" clip-path="url(#terminal-127981694-line-21)">These&#160;files&#160;have&#160;been&#160;changed&#160;but&#160;not&#160;staged&#160;for&#160;commit.&#160;To&#160;update&#160;what&#160;will&#160;be&#160;committed,&#160;you&#160;can&#160;use&#160;&quot;git&#160;add&#160;...&quot;.</text><text class="terminal-127981694-r1" x="1659.2" y="532.4" textLength="12.2" clip-path="url(#terminal-127981694-line-21)">
</text><text class="terminal-127981694-r2" x="158.6" y="556.8" textLength="1378.6" clip-path="url(#terminal-127981694-line-22)">To&#160;discard&#160;changes&#160;in&#160;the&#160;working&#160;directory,&#160;use&#160;&quot;git&#160;restore&#160;...&quot;.&#160;If&#160;you&#160;want&#160;to&#160;proceed&#160;with&#160;committing&#160;these&#160;</text><text class="terminal-127981694-r1" x="1659.2" y="556.8" textLength="12.2" clip-path="url(#terminal-127981694-line-22)">
</text><text class="terminal-127981694-r2" x="158.6" y="581.2" textLength="451.4" clip-path="url(#terminal-127981694-line-23)">changes,&#160;you&#160;can&#160;use&#160;&quot;git&#160;commit&#160;-a&quot;.</text><text class="terminal-127981694-r1" x="1659.2" y="581.2" textLength="12.2" clip-path="url(#terminal-127981694-line-23)">
</text><text class="terminal-127981694-r1" x="1659.2" y="605.6" textLength="12.2" clip-path="url(#terminal-127981694-line-24)">
</text><text class="terminal-127981694-r1" x="1659.2" y="630" textLength="12.2" clip-path="url(#terminal-127981694-line-25)">
</text><text class="terminal-127981694-r1" x="1659.2" y="654.4" textLength="12.2" clip-path="url(#terminal-127981694-line-26)">
</text><text class="terminal-127981694-r1" x="1659.2" y="678.8" textLength="12.2" clip-path="url(#terminal-127981694-line-27)">
</text><text class="terminal-127981694-r1" x="1659.2" y="703.2" textLength="12.2" clip-path="url(#terminal-127981694-line-28)">
</text><text class="terminal-127981694-r1" x="1659.2" y="727.6" textLength="12.2" clip-path="url(#terminal-127981694-line-29)">
</text><text class="terminal-127981694-r1" x="1659.2" y="752" textLength="12.2" clip-path="url(#terminal-127981694-line-30)">
</text><text class="terminal-127981694-r1" x="1659.2" y="776.4" textLength="12.2" clip-path="url(#terminal-127981694-line-31)">
</text><text class="terminal-127981694-r1" x="1659.2" y="800.8" textLength="12.2" clip-path="url(#terminal-127981694-line-32)">
</text><text class="terminal-127981694-r1" x="1659.2" y="825.2" textLength="12.2" clip-path="url(#terminal-127981694-line-33)">
</text><text class="terminal-127981694-r10" x="12.2" y="849.6" textLength="12.2" clip-path="url(#terminal-127981694-line-34)">▊</text><text class="terminal-127981694-r11" x="24.4" y="849.6" textLength="1317.6" clip-path="url(#terminal-127981694-line-34)">▔▔▔▔▔▔▔▔▔▔▔▔▔▔▔▔▔▔▔▔▔▔▔▔▔▔▔▔▔▔▔▔▔▔▔▔▔▔▔▔▔▔▔▔▔▔▔▔▔▔▔▔▔▔▔▔▔▔▔▔▔▔▔▔▔▔▔▔▔▔▔▔▔▔▔▔▔▔▔▔▔▔▔▔▔▔▔▔▔▔▔▔▔▔▔▔▔▔▔▔▔▔▔▔▔▔▔▔</text><text class="terminal-127981694-r11" x="1342" y="849.6" textLength="12.2" clip-path="url(#terminal-127981694-line-34)">▎</text><text class="terminal-127981694-r12" x="1366.4" y="849.6" textLength="195.2" clip-path="url(#terminal-127981694-line-34)">▔▔▔▔▔▔▔▔▔▔▔▔▔▔▔▔</text><text class="terminal-127981694-r13" x="1573.8" y="849.6" textLength="61" clip-path="url(#terminal-127981694-line-34)">▔▔▔▔▔</text><text class="terminal-127981694-r1" x="1659.2" y="849.6" textLength="12.2" clip-path="url(#terminal-127981694-line-34)">
</text><text class="terminal-127981694-r10" x="12.2" y="874" textLength="12.2" clip-path="url(#terminal-127981694-line-35)">▊</text><text class="terminal-127981694-r14" x="48.8" y="874" textLength="183" clip-path="url(#terminal-127981694-line-35)">Message&#160;Ollama…</text><text class="terminal-127981694-r11" x="1342" y="874" textLength="12.2" clip-path="url(#terminal-127981694-line-35)">▎</text><text class="terminal-127981694-r15" x="1439.6" y="874" textLength="48.8" clip-path="url(#terminal-127981694-line-35)">post</text><text class="terminal-127981694-r15" x="1598.2" y="874" textLength="12.2" clip-path="url(#terminal-127981694-line-35)">↕</text><text class="terminal-127981694-r1" x="1659.2" y="874" textLength="12.2" clip-path="url(#terminal-127981694-line-35)">
</text><text class="terminal-127981694-r10" x="12.2" y="898.4" textLength="12.2" clip-path="url(#terminal-127981694-line-36)">▊</text><text class="terminal-127981694-r11" x="24.4" y="898.4" textLength="1317.6" clip-path="url(#terminal-127981694-line-36)">▁▁▁▁▁▁▁▁▁▁▁▁▁▁▁▁▁▁▁▁▁▁▁▁▁▁▁▁▁▁▁▁▁▁▁▁▁▁▁▁▁▁▁▁▁▁▁▁▁▁▁▁▁▁▁▁▁▁▁▁▁▁▁▁▁▁▁▁▁▁▁▁▁▁▁▁▁▁▁▁▁▁▁▁▁▁▁▁▁▁▁▁▁▁▁▁▁▁▁▁▁▁▁▁▁▁▁▁</text><text class="terminal-127981694-r11" x="1342" y="898.4" textLength="12.2" clip-path="url(#terminal-127981694-line-36)">▎</text><text class="terminal-127981694-r16" x="1366.4" y="898.4" textLength="195.2" clip-path="url(#terminal-127981694-line-36)">▁▁▁▁▁▁▁▁▁▁▁▁▁▁▁▁</text><text class="terminal-127981694-r17" x="1573.8" y="898.4" textLength="61" clip-path="url(#terminal-127981694-line-36)">▁▁▁▁▁</text><text class="terminal-127981694-r1" x="1659.2" y="898.4" textLength="12.2" clip-path="url(#terminal-127981694-line-36)">
</text><text class="terminal-127981694-r18" x="0" y="922.8" textLength="48.8" clip-path="url(#terminal-127981694-line-37)">&#160;^l&#160;</text><text class="terminal-127981694-r2" x="48.8" y="922.8" textLength="122" clip-path="url(#terminal-127981694-line-37)">multiline&#160;</text><text class="terminal-127981694-r18" x="170.8" y="922.8" textLength="48.8" clip-path="url(#terminal-127981694-line-37)">&#160;^i&#160;</text><text class="terminal-127981694-r2" x="219.6" y="922.8" textLength="122" clip-path="url(#terminal-127981694-line-37)">add&#160;image&#160;</text><text class="terminal-127981694-r18" x="341.6" y="922.8" textLength="36.6" clip-path="url(#terminal-127981694-line-37)">&#160;↑&#160;</text><text class="terminal-127981694-r2" x="378.2" y="922.8" textLength="97.6" clip-path="url(#terminal-127981694-line-37)">history&#160;</text><text class="terminal-127981694-r18" x="475.8" y="922.8" textLength="73.2" clip-path="url(#terminal-127981694-line-37)">&#160;^tab&#160;</text><text class="terminal-127981694-r2" x="549" y="922.8" textLength="122" clip-path="url(#terminal-127981694-line-37)">next&#160;chat&#160;</text><text class="terminal-127981694-r18" x="671" y="922.8" textLength="146.4" clip-path="url(#terminal-127981694-line-37)">&#160;shift+^tab&#160;</text><text class="terminal-127981694-r2" x="817.4" y="922.8" textLength="122" clip-path="url(#terminal-127981694-line-37)">prev&#160;chat&#160;</text><text class="terminal-127981694-r18" x="939.4" y="922.8" textLength="48.8" clip-path="url(#terminal-127981694-line-37)">&#160;^⌫&#160;</text><text class="terminal-127981694-r2" x="988.2" y="922.8" textLength="146.4" clip-path="url(#terminal-127981694-line-37)">delete&#160;chat&#160;</text><text class="terminal-127981694-r18" x="1134.6" y="922.8" textLength="48.8" clip-path="url(#terminal-127981694-line-37)">&#160;^n&#160;</text><text class="terminal-127981694-r2" x="1183.4" y="922.8" textLength="109.8" clip-path="url(#terminal-127981694-line-37)">new&#160;chat&#160;</text><text class="terminal-127981694-r18" x="1293.2" y="922.8" textLength="48.8" clip-path="url(#terminal-127981694-line-37)">&#160;^q&#160;</text><text class="terminal-127981694-r2" x="1342" y="922.8" textLength="61" clip-path="url(#terminal-127981694-line-37)">quit&#160;</text><text class="terminal-127981694-r19" x="1512.8" y="922.8" textLength="12.2" clip-path="url(#terminal-127981694-line-37)">▏</text><text class="terminal-127981694-r18" x="1525" y="922.8" textLength="24.4" clip-path="url(#terminal-127981694-line-37)">^p</text><text class="terminal-127981694-r2" x="1549.4" y="922.8" textLength="97.6" clip-path="url(#terminal-127981694-line-37)">&#160;palette</text>
    </g>
    </g>
</svg>
